<?xml version="1.0" encoding="UTF-8"?>
<!DOCTYPE svg PUBLIC "-//W3C//DTD SVG 1.1//EN" "http://www.w3.org/Graphics/SVG/1.1/DTD/svg11.dtd">
<svg xmlns="http://www.w3.org/2000/svg" version="1.1" viewBox="0 0 29 29" stroke="none">
	<rect width="100%" height="100%" fill="#FF69B4"/>
	<path d="M2,2h1v1h-1z M3,2h1v1h-1z M4,2h1v1h-1z M5,2h1v1h-1z M6,2h1v1h-1z M7,2h1v1h-1z M8,2h1v1h-1z M12,2h1v1h-1z M13,2h1v1h-1z M14,2h1v1h-1z M20,2h1v1h-1z M21,2h1v1h-1z M22,2h1v1h-1z M23,2h1v1h-1z M24,2h1v1h-1z M25,2h1v1h-1z M26,2h1v1h-1z M2,3h1v1h-1z M8,3h1v1h-1z M10,3h1v1h-1z M14,3h1v1h-1z M15,3h1v1h-1z M17,3h1v1h-1z M20,3h1v1h-1z M26,3h1v1h-1z M2,4h1v1h-1z M4,4h1v1h-1z M5,4h1v1h-1z M6,4h1v1h-1z M8,4h1v1h-1z M11,4h1v1h-1z M13,4h1v1h-1z M15,4h1v1h-1z M18,4h1v1h-1z M20,4h1v1h-1z M22,4h1v1h-1z M23,4h1v1h-1z M24,4h1v1h-1z M26,4h1v1h-1z M2,5h1v1h-1z M4,5h1v1h-1z M5,5h1v1h-1z M6,5h1v1h-1z M8,5h1v1h-1z M12,5h1v1h-1z M13,5h1v1h-1z M15,5h1v1h-1z M18,5h1v1h-1z M20,5h1v1h-1z M22,5h1v1h-1z M23,5h1v1h-1z M24,5h1v1h-1z M26,5h1v1h-1z M2,6h1v1h-1z M4,6h1v1h-1z M5,6h1v1h-1z M6,6h1v1h-1z M8,6h1v1h-1z M11,6h1v1h-1z M20,6h1v1h-1z M22,6h1v1h-1z M23,6h1v1h-1z M24,6h1v1h-1z M26,6h1v1h-1z M2,7h1v1h-1z M8,7h1v1h-1z M10,7h1v1h-1z M11,7h1v1h-1z M17,7h1v1h-1z M20,7h1v1h-1z M26,7h1v1h-1z M2,8h1v1h-1z M3,8h1v1h-1z M4,8h1v1h-1z M5,8h1v1h-1z M6,8h1v1h-1z M7,8h1v1h-1z M8,8h1v1h-1z M10,8h1v1h-1z M12,8h1v1h-1z M14,8h1v1h-1z M16,8h1v1h-1z M18,8h1v1h-1z M20,8h1v1h-1z M21,8h1v1h-1z M22,8h1v1h-1z M23,8h1v1h-1z M24,8h1v1h-1z M25,8h1v1h-1z M26,8h1v1h-1z M10,9h1v1h-1z M11,9h1v1h-1z M12,9h1v1h-1z M13,9h1v1h-1z M14,9h1v1h-1z M16,9h1v1h-1z M18,9h1v1h-1z M6,10h1v1h-1z M7,10h1v1h-1z M8,10h1v1h-1z M9,10h1v1h-1z M11,10h1v1h-1z M12,10h1v1h-1z M14,10h1v1h-1z M15,10h1v1h-1z M17,10h1v1h-1z M18,10h1v1h-1z M20,10h1v1h-1z M21,10h1v1h-1z M25,10h1v1h-1z M4,11h1v1h-1z M11,11h1v1h-1z M13,11h1v1h-1z M16,11h1v1h-1z M17,11h1v1h-1z M22,11h1v1h-1z M23,11h1v1h-1z M24,11h1v1h-1z M5,12h1v1h-1z M6,12h1v1h-1z M8,12h1v1h-1z M9,12h1v1h-1z M10,12h1v1h-1z M14,12h1v1h-1z M16,12h1v1h-1z M18,12h1v1h-1z M20,12h1v1h-1z M21,12h1v1h-1z M22,12h1v1h-1z M2,13h1v1h-1z M6,13h1v1h-1z M9,13h1v1h-1z M11,13h1v1h-1z M12,13h1v1h-1z M13,13h1v1h-1z M14,13h1v1h-1z M15,13h1v1h-1z M21,13h1v1h-1z M22,13h1v1h-1z M24,13h1v1h-1z M26,13h1v1h-1z M2,14h1v1h-1z M4,14h1v1h-1z M5,14h1v1h-1z M7,14h1v1h-1z M8,14h1v1h-1z M12,14h1v1h-1z M17,14h1v1h-1z M18,14h1v1h-1z M20,14h1v1h-1z M21,14h1v1h-1z M24,14h1v1h-1z M25,14h1v1h-1z M2,15h1v1h-1z M3,15h1v1h-1z M4,15h1v1h-1z M12,15h1v1h-1z M14,15h1v1h-1z M15,15h1v1h-1z M16,15h1v1h-1z M20,15h1v1h-1z M22,15h1v1h-1z M23,15h1v1h-1z M5,16h1v1h-1z M6,16h1v1h-1z M7,16h1v1h-1z M8,16h1v1h-1z M9,16h1v1h-1z M10,16h1v1h-1z M11,16h1v1h-1z M15,16h1v1h-1z M17,16h1v1h-1z M20,16h1v1h-1z M21,16h1v1h-1z M22,16h1v1h-1z M5,17h1v1h-1z M6,17h1v1h-1z M9,17h1v1h-1z M11,17h1v1h-1z M12,17h1v1h-1z M13,17h1v1h-1z M17,17h1v1h-1z M18,17h1v1h-1z M19,17h1v1h-1z M20,17h1v1h-1z M24,17h1v1h-1z M26,17h1v1h-1z M2,18h1v1h-1z M3,18h1v1h-1z M4,18h1v1h-1z M5,18h1v1h-1z M7,18h1v1h-1z M8,18h1v1h-1z M10,18h1v1h-1z M11,18h1v1h-1z M12,18h1v1h-1z M16,18h1v1h-1z M18,18h1v1h-1z M19,18h1v1h-1z M20,18h1v1h-1z M21,18h1v1h-1z M22,18h1v1h-1z M24,18h1v1h-1z M25,18h1v1h-1z M26,18h1v1h-1z M10,19h1v1h-1z M13,19h1v1h-1z M14,19h1v1h-1z M18,19h1v1h-1z M22,19h1v1h-1z M23,19h1v1h-1z M24,19h1v1h-1z M2,20h1v1h-1z M3,20h1v1h-1z M4,20h1v1h-1z M5,20h1v1h-1z M6,20h1v1h-1z M7,20h1v1h-1z M8,20h1v1h-1z M10,20h1v1h-1z M12,20h1v1h-1z M13,20h1v1h-1z M17,20h1v1h-1z M18,20h1v1h-1z M20,20h1v1h-1z M22,20h1v1h-1z M23,20h1v1h-1z M24,20h1v1h-1z M2,21h1v1h-1z M8,21h1v1h-1z M10,21h1v1h-1z M15,21h1v1h-1z M18,21h1v1h-1z M22,21h1v1h-1z M24,21h1v1h-1z M25,21h1v1h-1z M26,21h1v1h-1z M2,22h1v1h-1z M4,22h1v1h-1z M5,22h1v1h-1z M6,22h1v1h-1z M8,22h1v1h-1z M10,22h1v1h-1z M11,22h1v1h-1z M12,22h1v1h-1z M14,22h1v1h-1z M17,22h1v1h-1z M18,22h1v1h-1z M19,22h1v1h-1z M20,22h1v1h-1z M21,22h1v1h-1z M22,22h1v1h-1z M24,22h1v1h-1z M2,23h1v1h-1z M4,23h1v1h-1z M5,23h1v1h-1z M6,23h1v1h-1z M8,23h1v1h-1z M11,23h1v1h-1z M15,23h1v1h-1z M18,23h1v1h-1z M19,23h1v1h-1z M21,23h1v1h-1z M23,23h1v1h-1z M26,23h1v1h-1z M2,24h1v1h-1z M4,24h1v1h-1z M5,24h1v1h-1z M6,24h1v1h-1z M8,24h1v1h-1z M11,24h1v1h-1z M12,24h1v1h-1z M14,24h1v1h-1z M15,24h1v1h-1z M19,24h1v1h-1z M21,24h1v1h-1z M24,24h1v1h-1z M25,24h1v1h-1z M2,25h1v1h-1z M8,25h1v1h-1z M11,25h1v1h-1z M12,25h1v1h-1z M13,25h1v1h-1z M15,25h1v1h-1z M18,25h1v1h-1z M19,25h1v1h-1z M22,25h1v1h-1z M23,25h1v1h-1z M24,25h1v1h-1z M25,25h1v1h-1z M2,26h1v1h-1z M3,26h1v1h-1z M4,26h1v1h-1z M5,26h1v1h-1z M6,26h1v1h-1z M7,26h1v1h-1z M8,26h1v1h-1z M11,26h1v1h-1z M16,26h1v1h-1z M19,26h1v1h-1z M20,26h1v1h-1z M24,26h1v1h-1z M25,26h1v1h-1z M26,26h1v1h-1z" fill="#FFFFF"/>
</svg>
